<svg height="503pt" viewBox="-59 0 503 503.96542" width="503pt" xmlns="http://www.w3.org/2000/svg"><path d="m378.191406 420.03125s-18.800781 27.445312-43.984375 19.050781l.167969.589844c5.207031 16.367187 13.765625 34.664063 27.027344 39.113281-17.871094 12.351563-39.804688 17.367188-61.269532 14.015625-12.03125-1.746093-23.671874-5.550781-34.414062-11.246093h-144.367188c-18.171874 9.96875-39.039062 13.90625-59.59375 11.246093-13-1.636719-25.394531-6.449219-36.09375-14.015625 13.683594-4.53125 22.328126-23.921875 27.449219-40.625l.417969-1.34375c-8.046875 2.652344-16.796875 2.171875-24.507812-1.339844-7.808594-3.542968-14.699219-8.824218-20.144532-15.445312 14.183594-4.699219 25.683594-22.746094 33.070313-37.601562l1.511719-3.105469c-16.789063 8.390625-34.582032-18.046875-34.582032-18.046875 26.1875-13.09375 47.253906-51.789063 55.3125-68.070313h258.6875c8.054688 16.28125 29.125 54.976563 55.3125 68.070313 0 0-16.789062 28.535156-33.574218 20.144531l1.007812 2.011719c7.386719 14.605468 18.714844 31.980468 32.566406 36.597656zm0 0" fill="#ffb301"/><path d="m353.011719 420.03125c-5.207031 7.148438-11.984375 13.007812-19.808594 17.121094-7.476563 3.84375-16.183594 4.539062-24.175781 1.929687l.167968.589844c5.207032 16.367187 13.765626 34.664063 27.027344 39.113281-10.695312 7.566406-23.089844 12.378906-36.089844 14.015625-20.554687 2.660157-41.421874-1.277343-59.59375-11.246093h-144.367187c-10.742187 5.695312-22.382813 9.5-34.414063 11.246093-13-1.636719-25.394531-6.449219-36.09375-14.015625 13.683594-4.53125 22.328126-23.921875 27.449219-40.625l.417969-1.34375c-8.046875 2.652344-16.796875 2.171875-24.507812-1.339844-7.808594-3.542968-14.699219-8.824218-20.144532-15.445312 14.183594-4.699219 25.683594-22.746094 33.070313-37.601562l1.511719-3.105469c-16.789063 8.390625-34.582032-18.046875-34.582032-18.046875 26.1875-13.09375 47.253906-51.789063 55.3125-68.070313h233.507813c8.054687 16.28125 29.125 54.976563 55.3125 68.070313 0 0-16.789063 28.535156-33.574219 20.144531l1.007812 2.011719c7.382813 14.605468 18.714844 31.980468 32.566407 36.597656zm0 0" fill="#fdd834"/><path d="m118.613281 434.71875s7.773438 44.066406-.621093 60.851562h151.082031c-8.390625-16.785156.65625-62.019531.65625-62.019531" fill="#cbb292"/><path d="m344.027344 181.070312c-5.539063 12.839844-12 26.773438-16.867188 38.945313l-25.097656-.085937-242.234375-1.089844c-15.023437-35.421875-28.453125-73.945313-24.59375-112.472656 5.875-59.507813 74.199219-78.226563 132.699219-80.578126 1.429687-.082031 2.855468-.082031 4.28125-.082031 8.5625-.253906 16.957031-.167969 24.761718.25 10.269532-7.3125 22.113282-12.117187 34.582032-14.015625 7.289062-1.445312 14.660156-2.457031 22.074218-3.023437 17.988282-1.609375 36.121094.300781 53.382813 5.625 32.316406 10.898437 54.898437 40.171875 57.242187 74.199219 2.769532 31.726562-7.890624 63.789062-20.230468 92.328124zm0 0" fill="#ffb301"/><path d="m318.847656 181.070312c-5.539062 12.839844-12 26.691407-16.785156 38.859376l-242.234375-1.089844c-15.023437-35.421875-28.453125-73.945313-24.59375-112.472656 5.875-59.507813 74.199219-78.226563 132.699219-80.578126 1.34375.085938 2.601562.085938 3.863281.167969.167969-.082031.25-.25.417969-.25 8.5625-.253906 16.957031-.167969 24.761718.25 10.269532-7.3125 22.113282-12.117187 34.582032-14.015625 7.289062-1.445312 14.660156-2.457031 22.074218-3.023437 9.589844.757812 19.054688 2.644531 28.199219 5.625 32.320313 10.898437 54.902344 40.171875 57.246094 74.199219 2.769531 31.726562-7.890625 63.789062-20.230469 92.328124zm0 0" fill="#fdd834"/><path d="m327.828125 184.175781c0 23.667969-.753906 43.644531-1.929687 60.515625-.082032 1.007813-.167969 2.015625-.167969 2.9375v.085938l-6.292969 51.617187v.085938c-1.007812 5.621093-2.015625 10.492187-2.9375 14.769531v.085938c-2.15625 8.0625-3.644531 16.285156-4.449219 24.59375-.976562 14.050781-3.226562 27.984374-6.714843 41.628906-.957032 3.945312-2.335938 7.769531-4.113282 11.417968-5.34375 10.164063-11.761718 19.730469-19.136718 28.535157-9.34375 11.238281-20.355469 20.976562-32.652344 28.875l-20.226563 12.671875c-7.835937 5.117187-16.996093 7.832031-26.355469 7.808594h-18.632812c-1.007812 0-2.015625 0-3.023438-.085938h-.503906c-8.140625-.59375-15.996094-3.253906-22.828125-7.722656l-20.230469-12.671875c-12.292968-7.898438-23.304687-17.636719-32.648437-28.875-7.378906-8.804688-13.792969-18.371094-19.136719-28.535157-1.777344-3.648437-3.160156-7.472656-4.113281-11.417968-3.492187-13.644532-5.738281-27.578125-6.714844-41.628906-.804687-8.308594-2.292969-16.53125-4.449219-24.59375v-.085938c-.921874-4.277344-1.929687-9.148438-2.9375-14.769531l-6.292968-51.789063c0-.921875-.085938-1.929687-.167969-2.9375-1.175781-16.871094-1.933594-36.847656-1.933594-60.515625 0-2.769531.085938-5.457031.335938-8.058593.496093-8.996094 2.191406-17.890626 5.039062-26.4375 11.078125-30.511719 38.980469-51.71875 71.34375-54.222657 14.433594-1.425781 29.460938-2.351562 44.988281-2.601562 4.113282-.167969 8.394532-.167969 12.589844-.167969 19.890625 0 39.195313.921875 57.578125 2.769531 32.363281 2.503907 60.265625 23.710938 71.34375 54.222657 2.847657 8.546874 4.542969 17.441406 5.039063 26.4375.25 2.601562.332031 5.289062.332031 8.058593zm0 0" fill="#bfa885"/><path d="m302.648438 184.175781c0 23.667969-.753907 43.644531-1.929688 60.515625-.082031 1.007813-.167969 2.015625-.167969 2.9375v.085938l-6.292969 51.617187v.085938c-1.007812 5.621093-2.015624 10.492187-2.9375 14.769531v.085938c-2.15625 8.0625-3.644531 16.285156-4.449218 24.59375-.976563 14.050781-3.226563 27.984374-6.714844 41.628906-.957031 3.945312-2.335938 7.769531-4.113281 11.417968-5.34375 10.164063-11.761719 19.730469-19.136719 28.535157-9.34375 11.238281-20.355469 20.976562-32.652344 28.875l-20.226562 12.671875c-6.832032 4.46875-14.6875 7.128906-22.832032 7.722656h-.503906c-8.140625-.59375-15.996094-3.253906-22.828125-7.722656l-20.230469-12.671875c-12.292968-7.898438-23.304687-17.636719-32.648437-28.875-7.378906-8.804688-13.792969-18.371094-19.136719-28.535157-1.777344-3.648437-3.160156-7.472656-4.113281-11.417968-3.492187-13.644532-5.738281-27.578125-6.714844-41.628906-.804687-8.308594-2.292969-16.53125-4.449219-24.59375v-.085938c-.921874-4.277344-1.929687-9.148438-2.9375-14.769531l-6.292968-51.789063c0-.921875-.085938-1.929687-.167969-2.9375-1.175781-16.871094-1.933594-36.847656-1.933594-60.515625 0-2.769531.085938-5.457031.335938-8.058593.496093-8.996094 2.191406-17.890626 5.039062-26.4375 11.078125-30.511719 38.980469-51.71875 71.34375-54.222657 14.433594-1.425781 29.460938-2.351562 44.988281-2.601562 15.527344.25 30.550782 1.175781 44.988282 2.601562 32.363281 2.503907 60.265625 23.710938 71.34375 54.222657 2.847656 8.546874 4.542968 17.441406 5.035156 26.4375.253906 2.601562.335938 5.289062.335938 8.058593zm0 0" fill="#ffe0b2"/><path d="m327.828125 184.175781c0 23.667969-.753906 43.644531-1.929687 60.515625-.082032 1.007813-.167969 2.015625-.167969 2.9375-1.871094-12.773437-11.238281-23.171875-23.753907-26.355468-10.800781-2.34375-21.863281-3.246094-32.902343-2.683594h-176.261719c-11.035156-.5625-22.101562.339844-32.902344 2.683594-.417968-11.246094-.671875-23.585938-.671875-37.097657 0-2.769531.085938-5.457031.335938-8.058593 39.660156-10.253907 80.410156-15.664063 121.371093-16.117188 4.113282-.082031 8.308594-.167969 12.589844-.167969 45.171875-.421875 90.203125 5.054688 133.960938 16.285157.25 2.601562.332031 5.289062.332031 8.058593zm0 0" fill="#ad1457"/><path d="m302.648438 184.175781c0 13.511719-.25 25.851563-.671876 37.097657-10.800781-2.34375-21.863281-3.246094-32.902343-2.683594h-176.261719c-11.035156-.5625-22.101562.339844-32.902344 2.683594-.417968-11.246094-.671875-23.585938-.671875-37.097657 0-2.769531.085938-5.457031.335938-8.058593 39.660156-10.253907 80.410156-15.664063 121.371093-16.117188 40.957032.453125 81.710938 5.863281 121.367188 16.117188.253906 2.601562.335938 5.289062.335938 8.058593zm0 0" fill="#e91e63"/><path d="m117.992188 210.195312c-7.363282-.125-14.734376.125-22.074219.753907-24.003907 2.351562-45.070313 12.84375-45.070313 58 0 29.375 16.113282 50.695312 41.378906 56.824219 5.214844 1.300781 10.570313 1.949218 15.945313 1.929687 36.34375 0 76.96875-25.097656 76.96875-58.753906 0-35.671875-26.355469-58.753907-67.148437-58.753907zm0 0" fill="#4527a0"/><path d="m175.910156 267.773438c-3.457031-.003907-6.558594-2.125-7.816406-5.347657-1.253906-3.222656-.402344-6.882812 2.140625-9.222656 6.28125-6 14.617187-9.375 23.300781-9.433594 4.636719 0 8.394532 3.757813 8.394532 8.390625 0 4.636719-3.757813 8.394532-8.394532 8.394532-4.480468.078124-8.761718 1.882812-11.945312 5.035156-1.554688 1.414062-3.582032 2.191406-5.679688 2.183594zm0 0"/><path d="m269.074219 210.195312c-3.84375-.007812-7.6875.246094-11.496094.753907-34.164063 3.863281-55.648437 25.769531-55.648437 58 0 28.285156 28.621093 50.527343 59.339843 56.824219 5.792969 1.257812 11.699219 1.90625 17.625 1.929687 34.246094 0 57.328125-23.585937 57.328125-58.753906 0-58.753907-35.671875-58.753907-67.148437-58.753907zm0 0" fill="#4527a0"/><path d="m95.917969 210.949219c-24.003907 2.351562-45.070313 12.84375-45.070313 58 0 29.375 16.113282 50.695312 41.378906 56.824219 30.71875-6.296876 59.339844-28.539063 59.339844-56.824219 0-32.230469-21.484375-54.136719-55.648437-58zm0 0" fill="#673ab7"/><path d="m257.578125 210.949219c-34.164063 3.863281-55.648437 25.769531-55.648437 58 0 28.285156 28.621093 50.527343 59.339843 56.824219 25.265625-6.128907 41.378907-27.449219 41.378907-56.824219 0-45.15625-21.066407-55.648438-45.070313-58zm0 0" fill="#673ab7"/><path d="m211.160156 267.773438c-2.105468 0-4.132812-.789063-5.679687-2.214844-3.191407-3.144532-7.46875-4.933594-11.945313-5.003906-4.636718 0-8.394531-3.757813-8.394531-8.394532 0-4.632812 3.757813-8.390625 8.394531-8.390625 8.683594.058594 17.019532 3.433594 23.300782 9.433594 2.542968 2.339844 3.394531 6 2.136718 9.222656-1.253906 3.222657-4.355468 5.34375-7.8125 5.347657zm0 0"/><path d="m269.074219 380.664062c-8.074219 7.058594-19.683594 8.359376-29.125 3.273438-7.386719 5.792969-24.253907 16.117188-41.882813 7.722656-1.5625-.769531-3.078125-1.640625-4.53125-2.601562v-.167969c-4.472656 3.125-9.675781 5.035156-15.109375 5.539063-6.25.609374-12.550781-.402344-18.296875-2.9375-4.660156-1.984376-9.035156-4.582032-13.011718-7.722657-9.441407 5.085938-21.046876 3.785157-29.125-3.273437-8.390626-8.390625 0-25.179688 0-25.179688 12.695312-4.777344 25.910156-8.046875 39.367187-9.734375.082031-.085937.082031-.085937.167969 0 7.507812-1.027343 15.105468-1.25 22.660156-.671875 4.503906.246094 8.972656.921875 13.347656 2.011719v.167969c2.351563-.574219 4.734375-1.023438 7.132813-1.339844h.167969c23.191406-1.921875 46.511718 1.40625 68.238281 9.734375 0 0 8.394531 16.789063 0 25.179687zm0 0" fill="#ffb301"/><path d="m240.203125 380.664062c-8.078125 7.058594-19.683594 8.359376-29.125 3.273438-3.953125 3.171875-8.335937 5.769531-13.011719 7.722656-6.171875 2.695313-12.960937 3.652344-19.640625 2.769532-4.945312-.683594-9.660156-2.523438-13.765625-5.371094v-.167969c-1.453125.960937-2.96875 1.832031-4.53125 2.601563-4.660156-1.984376-9.035156-4.582032-13.011718-7.722657-9.441407 5.085938-21.046876 3.785157-29.125-3.273437-8.390626-8.390625 0-25.179688 0-25.179688 12.695312-4.777344 25.910156-8.046875 39.367187-9.734375.082031-.085937.082031-.085937.167969 0 2.398437.316407 4.78125.765625 7.132812 1.339844v.167969c5.09375-1.234375 10.292969-1.964844 15.527344-2.179688 6.839844-.355468 13.695312-.074218 20.480469.839844h.167969c13.460937 1.6875 26.671874 4.957031 39.367187 9.734375 0 0 8.394531 16.789063 0 25.179687zm0 0" fill="#fdd834"/><path d="m6.226562 412.066406c-2.472656.828125-4.417968 2.761719-5.269531 5.226563-.847656 2.464843-.5 5.1875.9375 7.363281 8.730469 13.125 23.140625 21.363281 38.878907 22.234375.160156 0 .335937-.042969.503906-.042969-4.75 11.75-10.910156 21.527344-18.238282 23.964844-2.917968.96875-5.074218 3.460938-5.613281 6.488281-.542969 3.027344.617188 6.109375 3.019531 8.03125 15.640626 11.167969 34.433594 17.070313 53.652344 16.855469 12.113282-.082031 24.125-2.253906 35.503906-6.421875.066407 4.574219 3.816407 8.238281 8.390626 8.199219h151.082031c4.570312.023437 8.3125-3.628906 8.394531-8.199219 11.390625 4.175781 23.414062 6.351563 35.546875 6.429687 19.21875.214844 38.007813-5.6875 53.652344-16.855468 2.402343-1.921875 3.5625-5.003906 3.019531-8.03125-.539062-3.027344-2.695312-5.519532-5.613281-6.488282-7.296875-2.433593-13.488281-12.203124-18.242188-23.964843.167969 0 .347657.042969.503907.042969 15.726562-.875 30.121093-9.101563 38.855468-22.210938 1.4375-2.171875 1.785156-4.894531.9375-7.359375-.847656-2.46875-2.796875-4.398437-5.269531-5.230469-10.242187-5.457031-18.457031-14.070312-23.425781-24.558594 11.503906-3.695312 21.332031-11.335937 27.757812-21.570312 1.335938-2.003906 1.75-4.484375 1.132813-6.816406-.621094-2.328125-2.210938-4.277344-4.363281-5.355469-22.078126-11.035156-41.179688-44.023437-49.832032-60.894531 2.792969-7.671875 4.179688-15.789063 4.09375-23.953125.0625-7.199219-.636718-14.386719-2.089844-21.4375 0-.679688.066407-1.410157.144532-2.234375.519531-7.441406.90625-15.289063 1.214844-23.347656 0-.085938.101562-.144532.136718-.21875 3.179688-7.957032 6.714844-16.058594 10.398438-24.292969 1.90625-4.304688 3.820312-8.644531 5.707031-13.023438 11.347656-26.238281 23.9375-60.988281 20.925781-96.417969-2.53125-37.394531-27.398437-69.554687-62.953125-81.414062-25.933593-7.648438-53.378906-8.628906-79.796875-2.847656-12.742187 2.082031-24.902344 6.832031-35.6875 13.933594-.101562 0-.175781-.058594-.269531-.066407-76.203125-3.84375-160.128906 17.289063-167.105469 88.023438-4.09375 41.429687 10.175782 82.027343 24.660156 116.273437l.070313.109375c.316406 8.066407.703125 15.945313 1.222656 23.398438.066407.730469.128907 1.460937.136719 2.140625-1.453125 7.046875-2.152344 14.226562-2.089844 21.421875-.078125 8.15625 1.3125 16.257812 4.113282 23.921875-8.65625 16.871094-27.757813 49.855468-49.832032 60.894531-2.15625 1.074219-3.746094 3.027344-4.363281 5.355469-.621094 2.328125-.207031 4.808594 1.128906 6.8125 6.417969 10.238281 16.246094 17.875 27.75 21.5625-6.496093 11.214844-14.722656 21.671875-23.417969 24.570312zm187.308594-168.296875c-4.324218-.003906-8.601562.851563-12.589844 2.515625-2.890624-7.363281-7.429687-13.964844-13.269531-19.304687h51.71875c-5.839843 5.339843-10.378906 11.941406-13.269531 19.304687-3.988281-1.664062-8.269531-2.519531-12.589844-2.515625zm-125.902344 25.179688c0-41.96875 17.886719-41.96875 50.359376-41.96875 31.058593 0 50.363281 16.082031 50.363281 41.96875 0 23.25-32.910157 41.964843-60.15625 41.964843-29.90625 0-40.566407-21.679687-40.566407-41.964843zm0-84.773438c0-.480469.058594-.972656.058594-1.445312 41.195313-9.96875 83.460938-14.839844 125.84375-14.503907 42.382813-.335937 84.648438 4.535157 125.84375 14.503907 0 .488281.058594.949219.058594 1.445312 0 12.648438-.253906 24.726563-.6875 36.257813-13.246094-10.238282-32.105469-10.238282-49.675781-10.238282h-151.082031c-17.566407 0-36.425782 0-49.671876 10.238282-.433593-11.539063-.6875-23.617188-.6875-36.257813zm201.441407 42.804688c32.476562 0 50.363281 0 50.363281 41.96875 0 20.285156-10.660156 41.964843-40.566406 41.964843-27.246094 0-60.15625-18.714843-60.15625-41.964843 0-25.886719 19.304687-41.96875 50.359375-41.96875zm-75.539063-75.539063c-41.761718-.277344-83.414062 4.269532-124.132812 13.554688.742187-4.269532 1.796875-8.476563 3.15625-12.589844 9.996094-27.390625 35.09375-46.398438 64.167968-48.597656 37.789063-3.585938 75.828126-3.585938 113.613282 0 29.074218 2.199218 54.171875 21.207031 64.167968 48.597656 1.359376 4.113281 2.414063 8.320312 3.15625 12.589844-40.714843-9.285156-82.367187-13.832032-124.128906-13.554688zm-85.335937 176.261719c36.316406 0 76.941406-25.128906 76.941406-58.753906 0-1.988281-.109375-3.929688-.269531-5.875 5.273437-3.410157 12.054687-3.410157 17.324218 0-.15625 1.90625-.265624 3.84375-.265624 5.875 0 33.625 40.621093 58.753906 76.941406 58.753906 9.492187.117187 18.886718-1.960937 27.445312-6.070313-1.46875 5.640626-2.363281 11.414063-2.660156 17.234376-.867188 13.359374-3.027344 26.605468-6.445312 39.550781-.804688 3.347656-1.972657 6.601562-3.476563 9.699219-5.066406 9.628906-11.148437 18.683593-18.144531 27.011718-8.761719 10.539063-19.082032 19.675782-30.613282 27.085938l-20.386718 12.765625c-6.464844 4.222656-14.023438 6.457031-21.746094 6.429687h-18.625c-7.78125.019532-15.398438-2.25-21.898438-6.53125l-20.101562-12.589844c-11.574219-7.421874-21.9375-16.578124-30.730469-27.152343-6.988281-8.328125-13.070312-17.378907-18.136719-27-1.488281-3.0625-2.644531-6.273438-3.449218-9.578125-3.441406-13-5.613282-26.300782-6.488282-39.71875-.296874-5.820313-1.1875-11.59375-2.660156-17.230469 8.554688 4.117187 17.949219 6.203125 27.445313 6.09375zm20.882812 159.476563c1.378907-11.1875 1.34375-22.503907-.101562-33.683594 1.410156.972656 2.746093 1.996094 4.195312 2.945312l20.078125 12.589844c9.203125 6.015625 19.96875 9.199219 30.964844 9.164062h18.632812c10.9375.039063 21.644532-3.117187 30.8125-9.078124l20.355469-12.757813c1.398438-.917969 2.699219-1.914063 4.070313-2.863281-1.445313 11.179687-1.480469 22.496094-.101563 33.683594zm236.460938-123.789063c-4.71875 4.777344-11.265625 9.511719-16.644531 7.335937-1.898438-4.339843-3.5-8.484374-4.71875-12.109374-1.464844-4.40625-6.226563-6.785157-10.628907-5.320313-4.40625 1.46875-6.785156 6.226563-5.316406 10.632813 1.601563 4.824218 14.671875 42.378906 36.601563 58.410156-6.539063 6.433594-15.949219 9.003906-24.851563 6.789062-1.640625-6.148437-2.9375-12.386718-3.878906-18.683594-.425781-2.96875-2.402344-5.484374-5.1875-6.601562-2.78125-1.113281-5.949219-.660156-8.308594 1.191406-2.359375 1.855469-3.546875 4.824219-3.121094 7.792969.777344 5.441406 7.15625 46.257813 26.144531 65.429687-23.054687 10.078126-49.414062 9.296876-71.832031-2.125-.117187-12.632812 1.058594-25.242187 3.5-37.636718.011719-.222656.011719-.449219 0-.671875 3.996094-3.78125 7.761719-7.796875 11.28125-12.027344 7.769531-9.285156 14.523438-19.375 20.144531-30.097656 2.066407-4.234375 3.667969-8.675781 4.777344-13.253907 3.695313-14.261718 6.015625-28.84375 6.929688-43.546874.449218-5.300782 1.359375-10.550782 2.722656-15.695313l1.550781-7.160156c0-.148438.058594-.308594.085938-.476563.023437-.167968.109375-.546875.167969-.839844 10.125 18.777344 23.925781 35.328126 40.582031 48.664063zm-321.992188-256.160156c6.546875-66.304688 97.171875-73.304688 136.109375-73.230469-.957031 1.808594-1.777344 3.683594-2.457031 5.613281-1.351563 4.34375 1 8.96875 5.300781 10.4375 4.300782 1.46875 8.992188-.753906 10.578125-5.015625 4.195313-12.277344 17.289063-20.402344 40.0625-24.859375 23.546875-5.203125 48.027344-4.398437 71.183594 2.339844 29.167969 9.777344 49.539063 36.203125 51.578125 66.898437 2.71875 31.699219-9.058594 63.855469-19.617188 88.332032l-.265624.613281c-.050782-.941406-.101563-1.90625-.1875-2.769531 0-.167969-.050782-.320313-.058594-.488282v-.191406c-.589844-9.488281-2.394532-18.859375-5.371094-27.882812-12.105469-33.660156-42.796875-57.109375-78.453125-59.949219-38.863281-3.691406-77.988281-3.691406-116.851563 0-35.65625 2.839844-66.347656 26.289063-78.457031 59.949219-2.761719 8.433594-4.492187 17.167968-5.152343 26.019531-6.859376-21.222656-9.554688-43.570313-7.941407-65.816406zm15.253907 256.699219c1.464843-4.40625-.917969-9.160157-5.324219-10.625-4.402344-1.464844-9.160157.914062-10.625 5.320312-.972657 2.902344-2.617188 7.210938-4.785157 12.121094-5.496093 2.214844-12-2.710938-16.550781-7.371094 16.640625-13.347656 30.429688-29.902344 40.546875-48.683594l.160156.773438c0 .167968.058594.34375.09375.511718l1.550782 7.160157c1.363281 5.144531 2.273437 10.394531 2.722656 15.695312.921875 14.761719 3.257812 29.398438 6.972656 43.714844 1.105469 4.535156 2.703125 8.9375 4.761719 13.125 5.617187 10.714844 12.371094 20.792969 20.140625 30.066406 3.519531 4.222657 7.285156 8.238281 11.273438 12.019531-.011719.222657-.011719.449219 0 .671876 2.4375 12.40625 3.601562 25.027343 3.476562 37.667968-22.410156 11.523438-48.824219 12.320313-71.890625 2.175782 19.019531-19.15625 25.414063-60.039063 26.195313-65.46875.660156-4.589844-2.527344-8.84375-7.117188-9.503907-4.589844-.65625-8.84375 2.53125-9.5 7.121094-.945312 6.292969-2.238281 12.53125-3.878906 18.683594-8.902344 2.203125-18.308594-.367188-24.851563-6.792969 21.957031-16.003906 35.023438-53.558594 36.628907-58.382812zm0 0"/><path d="m107.140625 246.226562c-3.277344-3.277343-8.589844-3.277343-11.867187 0l-8.394532 8.394532c-2.179687 2.105468-3.054687 5.226562-2.289062 8.164062.769531 2.933594 3.0625 5.226563 5.996094 5.992188 2.933593.769531 6.054687-.105469 8.160156-2.289063l8.394531-8.390625c3.277344-3.277344 3.277344-8.59375 0-11.871094zm0 0"/><path d="m115.535156 291.667969 25.179688-25.179688c3.179687-3.292969 3.136718-8.527343-.101563-11.765625-3.238281-3.238281-8.472656-3.28125-11.765625-.101562l-25.179687 25.179687c-2.183594 2.109375-3.058594 5.230469-2.289063 8.164063.765625 2.933594 3.058594 5.226562 5.992188 5.992187 2.933594.769531 6.054687-.105469 8.164062-2.289062zm0 0"/><path d="m252.289062 268.949219c2.226563 0 4.359376-.886719 5.933594-2.460938l8.394532-8.390625c3.179687-3.296875 3.132812-8.53125-.101563-11.769531-3.238281-3.234375-8.472656-3.28125-11.765625-.101563l-8.394531 8.394532c-2.402344 2.402344-3.117188 6.011718-1.820313 9.144531 1.300782 3.136719 4.359375 5.183594 7.753906 5.183594zm0 0"/><path d="m263.140625 291.667969c3.277344 3.277343 8.589844 3.277343 11.871094 0l25.179687-25.179688c3.179688-3.292969 3.132813-8.527343-.101562-11.765625-3.238282-3.238281-8.472656-3.28125-11.769532-.101562l-25.179687 25.179687c-3.277344 3.277344-3.277344 8.589844 0 11.867188zm0 0"/><path d="m134.78125 395.195312c3.878906-.019531 7.730469-.671874 11.398438-1.941406 8.40625 6.046875 18.429687 9.4375 28.78125 9.738282 6.394531-.007813 12.699218-1.507813 18.414062-4.382813 5.792969 2.988281 12.210938 4.550781 18.726562 4.566406 10.351563-.304687 20.375-3.695312 28.789063-9.734375 3.667969 1.265625 7.519531 1.921875 11.398437 1.9375 8.429688.171875 16.589844-2.976562 22.722657-8.761718 12.320312-12.324219 2.699219-32.601563 1.578125-34.875-.921875-1.839844-2.488282-3.277344-4.398438-4.039063-1.773437-.710937-42.941406-16.871094-78.203125-9.230469-35.421875-8.082031-77.320312 8.390625-79.109375 9.0625-1.910156.761719-3.476562 2.199219-4.398437 4.039063-1.125 2.273437-10.742188 22.554687 1.578125 34.875 6.136718 5.777343 14.296875 8.917969 22.722656 8.746093zm-10.457031-33.265624c9.988281-3.488282 41.242187-13.109376 66.699219-6.964844 1.457031.523437 3.03125.625 4.542968.285156 25.457032-6.355469 57.160156 3.359375 67.199219 6.875 1.550781 4.398438 2.574219 10.414062.375 12.589844-6.347656 5.070312-15.355469 5.070312-21.703125 0-3.277344-3.277344-8.59375-3.277344-11.871094 0-1.914062 1.964844-2.726562 4.757812-2.164062 7.445312-8.796875 5.550782-19.996094 5.589844-28.832032.101563-2.816406-2.191407-6.71875-2.339844-9.695312-.371094-8.878906 5.730469-20.28125 5.769531-29.199219.101563.566407-2.6875-.246093-5.480469-2.164062-7.445313-3.277344-3.277344-8.59375-3.277344-11.871094 0-6.347656 5.0625-15.355469 5.0625-21.703125 0-2.265625-2.242187-1.125-8.300781.386719-12.617187zm0 0"/></svg>